<?xml version="1.0" ?><svg viewBox="0 0 40 40" xmlns="http://www.w3.org/2000/svg"><g id="jquery"><path d="M33.33,26l-.09.21A11.88,11.88,0,0,1,32,28.28,12.27,12.27,0,0,1,25,33a13.07,13.07,0,0,1-1.87.33,17.12,17.12,0,0,1-2.58.08,17.66,17.66,0,0,1-2.63-.32,6.63,6.63,0,0,1-1-.29,16.19,16.19,0,0,1-8.34-6.28,14.37,14.37,0,0,1-2.19-4.91,12.51,12.51,0,0,1-.36-3,10.4,10.4,0,0,1,.94-4.36,10.15,10.15,0,0,1,.69-1.25l.27-.37,1.53-1.94.17-.21a.26.26,0,0,1,0,.18,10.56,10.56,0,0,0-.7,1.95,11.88,11.88,0,0,0-.28,4,13.62,13.62,0,0,0,1.17,4.28,15.32,15.32,0,0,0,3,4.37,16.87,16.87,0,0,0,3.29,2.61,16.51,16.51,0,0,0,4.1,1.75c.46.12.94.2,1.42.28a13.58,13.58,0,0,0,1.43.15c.45,0,.89,0,1.34,0a13.45,13.45,0,0,0,3.51-.49,10.83,10.83,0,0,0,3.93-2,9.68,9.68,0,0,0,1.4-1.39L33.3,26Z"/><path d="M33.42,20.22A8.13,8.13,0,0,1,28,24.3a10.32,10.32,0,0,1-2,.32,12.27,12.27,0,0,1-2,0c-.46,0-.92-.11-1.37-.17l-.19-.05A11.81,11.81,0,0,1,17,21.09a11.37,11.37,0,0,1-2.4-3.91A9.77,9.77,0,0,1,14.15,14,7.73,7.73,0,0,1,15.6,9.56c.33-.46.66-.93,1-1.4.05-.06.09-.12.14-.17s.05,0,.07,0h0l-.11.16a7.86,7.86,0,0,0-.65,2,8.5,8.5,0,0,0-.13,2,9.39,9.39,0,0,0,.84,3.38,11.23,11.23,0,0,0,2.84,3.81,11.71,11.71,0,0,0,4.88,2.59,10.21,10.21,0,0,0,3.11.33A8.84,8.84,0,0,0,31.79,21a7.43,7.43,0,0,0,2.06-1.85l.15-.18S33.58,19.91,33.42,20.22Z"/><path d="M22.64,6.62l-.09.22a4.93,4.93,0,0,0-.36,2.28,6.53,6.53,0,0,0,1.3,3.34,7.16,7.16,0,0,0,4,2.74,7.77,7.77,0,0,0,2.14.28,4.89,4.89,0,0,0,1.47-.21,4,4,0,0,0,1.83-1.12l.17-.17c0,.06,0,.08,0,.1a5.45,5.45,0,0,1-2.74,2.51,5.85,5.85,0,0,1-1.9.39,8.08,8.08,0,0,1-1.9-.14,6,6,0,0,1-1.24-.42,7.36,7.36,0,0,1-3.44-3.13,6,6,0,0,1-.73-2.17,5.19,5.19,0,0,1,.92-3.76l.47-.64.09-.12Z"/><path d="M16.79,8V8Z"/></g></svg>